<svg width="50" height="50" viewBox="0 0 50 50" fill="none" xmlns="http://www.w3.org/2000/svg">
<path d="M29.1667 4.16666H12.5C11.395 4.16666 10.3352 4.60564 9.55376 5.38704C8.77236 6.16845 8.33337 7.22825 8.33337 8.33332V41.6667C8.33337 42.7717 8.77236 43.8315 9.55376 44.6129C10.3352 45.3943 11.395 45.8333 12.5 45.8333H37.5C38.6051 45.8333 39.6649 45.3943 40.4463 44.6129C41.2277 43.8315 41.6667 42.7717 41.6667 41.6667V16.6667L29.1667 4.16666Z" stroke="#2C313F" stroke-width="2" stroke-linecap="round" stroke-linejoin="round"/>
<path d="M29.1666 4.16666V16.6667H41.6666" stroke="#2C313F" stroke-width="2" stroke-linecap="round" stroke-linejoin="round"/>
<path d="M33.3333 27.0833H16.6666" stroke="#2C313F" stroke-width="2" stroke-linecap="round" stroke-linejoin="round"/>
<path d="M33.3333 35.4167H16.6666" stroke="#2C313F" stroke-width="2" stroke-linecap="round" stroke-linejoin="round"/>
<path d="M20.8333 18.75H18.75H16.6666" stroke="#2C313F" stroke-width="2" stroke-linecap="round" stroke-linejoin="round"/>
</svg>
